<?xml version="1.0" standalone="no"?>
<!DOCTYPE svg PUBLIC "-//W3C//DTD SVG 20010904//EN"
 "http://www.w3.org/TR/2001/REC-SVG-20010904/DTD/svg10.dtd">
<svg version="1.0" xmlns="http://www.w3.org/2000/svg"
 width="591.000000pt" height="591.000000pt" viewBox="0 0 591.000000 591.000000"
 preserveAspectRatio="xMidYMid meet">
<metadata>
Created by potrace 1.14, written by Peter Selinger 2001-2017
</metadata>
<g transform="translate(0.000000,591.000000) scale(0.100000,-0.100000)"
fill="#000000" stroke="none">
<path d="M2220 4715 c-244 -41 -346 -166 -378 -460 -9 -88 -9 -518 0 -605 38
-360 177 -480 557 -482 410 -2 545 111 590 492 8 75 7 557 -2 595 -2 11 -8 43
-11 70 -29 213 -143 350 -316 381 -14 3 -32 7 -40 10 -31 12 -326 11 -400 -1z
m350 -288 c84 -41 102 -124 103 -461 0 -331 -15 -431 -74 -480 -41 -35 -66
-40 -184 -41 -234 0 -259 48 -259 505 1 344 15 421 83 469 60 43 250 48 331 8z"/>
<path d="M3512 3951 c0 -413 3 -751 7 -752 9 -1 282 -1 303 0 15 1 16 22 16
214 0 116 1 217 1 223 1 6 58 10 166 11 222 2 287 8 390 40 134 42 209 146
231 324 9 65 8 292 0 334 -3 17 -9 45 -12 64 -17 100 -90 197 -178 236 -46 20
-72 28 -141 43 -11 2 -192 6 -402 9 l-381 5 0 -751z m654 475 c107 -16 146
-85 143 -256 -2 -155 -32 -219 -113 -242 -53 -14 -356 -17 -357 -3 0 5 -1 121
-2 257 l-2 247 25 3 c46 5 255 1 306 -6z"/>
<path d="M1330 3373 c-63 -25 -124 -49 -135 -54 -11 -5 -72 -28 -135 -52 -356
-135 -646 -250 -650 -258 -3 -4 -5 -68 -5 -141 l0 -133 70 -28 c72 -29 471
-184 740 -287 83 -32 167 -65 189 -74 21 -9 40 -16 42 -16 3 0 3 68 2 151 l-3
151 -185 64 c-102 35 -194 68 -205 73 -11 5 -83 30 -159 57 l-140 47 35 12
c356 124 646 228 652 234 4 4 6 73 5 153 l-3 145 -115 -44z"/>
<path d="M4327 3264 c1 -80 3 -147 5 -148 2 -1 155 -56 341 -121 245 -85 334
-121 323 -127 -15 -9 -71 -28 -486 -173 -91 -32 -169 -61 -174 -65 -6 -6 -10
-193 -6 -292 0 -7 54 10 105 33 17 7 420 163 843 326 l92 36 0 141 0 141 -57
22 c-32 12 -262 101 -512 198 -249 96 -459 175 -465 175 -8 0 -10 -44 -9 -146z"/>
<path d="M1810 2877 c-1 -12 -2 -351 -3 -753 l-2 -731 144 -1 144 -1 -6 517
c-4 284 -8 554 -10 600 -2 45 0 79 4 75 5 -7 28 -86 43 -153 2 -8 9 -35 16
-60 7 -25 14 -52 16 -60 2 -8 19 -76 39 -150 20 -74 49 -186 65 -249 16 -62
31 -115 34 -118 4 -4 142 -7 186 -4 11 1 23 29 39 94 13 50 43 166 68 257 24
91 46 178 49 194 2 16 10 38 16 50 6 11 10 22 9 24 -6 5 42 187 52 197 7 7 8
7 4 0 -10 -20 -25 -968 -18 -1186 l1 -26 140 0 140 -1 0 754 0 753 -204 1
c-221 0 -210 3 -222 -55 -2 -11 -20 -78 -39 -150 -19 -71 -51 -202 -71 -290
-19 -88 -38 -171 -41 -185 -7 -28 -10 -17 -63 220 -16 74 -49 207 -73 295
l-42 160 -208 2 c-206 1 -207 1 -207 -20z"/>
<path d="M3527 2893 c-3 -7 -2 -1442 2 -1484 1 -15 48 -17 531 -17 l530 0 0
137 0 136 -367 0 -368 0 -3 618 -2 617 -159 0 c-88 0 -161 -3 -164 -7z"/>
</g>
</svg>
